<?xml version="1.0" encoding="UTF-8" standalone="no"?>
<!-- Created with Inkscape (http://www.inkscape.org/) -->

<svg
   xmlns:dc="http://purl.org/dc/elements/1.1/"
   xmlns:cc="http://creativecommons.org/ns#"
   xmlns:rdf="http://www.w3.org/1999/02/22-rdf-syntax-ns#"
   xmlns:svg="http://www.w3.org/2000/svg"
   xmlns="http://www.w3.org/2000/svg"
   xmlns:xlink="http://www.w3.org/1999/xlink"
   xmlns:sodipodi="http://sodipodi.sourceforge.net/DTD/sodipodi-0.dtd"
   xmlns:inkscape="http://www.inkscape.org/namespaces/inkscape"
   width="536"
   height="254"
   id="svg2"
   version="1.1">
  <g
     inkscape:label="Layer 1"
     inkscape:groupmode="layer"
     id="layer1"
     transform="translate(-155.26575,-392.46562)">
    <path
       style="fill:#ffc20e"
       id="path1627"
       d="m 420.287,653.584 c 0,2.314 -1.894,4.188 -4.23,4.188 -2.336,0 -4.231,-1.873 -4.231,-4.188 0,-2.313 1.896,-4.188 4.231,-4.188 2.337,0 4.23,1.875 4.23,4.188 m -4.23,-2.426 c -1.354,0 -2.452,1.087 -2.452,2.426 0,1.342 1.099,2.429 2.452,2.429 1.353,0 2.451,-1.087 2.451,-2.429 0,-1.339 -1.098,-2.426 -2.451,-2.426"
       clip-path="url(#SVGID_16_)"
       transform="matrix(26.591259,0,0,26.591259,-10713.885,-16844.52)" />
    <path
       style="fill:#211d70"
       id="path1629"
       d="m 420.999,649.546 h -0.535 l -0.129,0.385 c -0.017,0.063 0.063,0.111 0.063,0.111 h -0.315 c 0,0 0.042,-0.032 0.082,-0.116 0.016,-0.034 0.593,-1.706 0.593,-1.706 0,0 0.653,1.668 0.676,1.705 0.048,0.08 0.092,0.117 0.092,0.117 h -0.42 c 0,0 0.063,-0.037 0.039,-0.111 -0.006,-0.018 -0.069,-0.184 -0.146,-0.385 m -0.487,-0.145 h 0.432 l -0.231,-0.607 -0.201,0.607 z m -8.912,-0.343 c 0.278,0.195 0.367,0.397 0.289,0.655 -0.064,0.202 -0.237,0.336 -0.543,0.351 -0.213,0.012 -0.384,-0.05 -0.461,-0.081 v -0.327 c 0.092,0.139 0.248,0.286 0.447,0.286 0.147,0 0.256,-0.096 0.281,-0.218 0.022,-0.107 0.028,-0.221 -0.357,-0.49 -0.342,-0.24 -0.433,-0.399 -0.388,-0.661 0.04,-0.238 0.278,-0.349 0.591,-0.349 0.144,0 0.262,0.035 0.332,0.058 v 0.293 c -0.09,-0.141 -0.209,-0.228 -0.37,-0.228 -0.18,0 -0.28,0.098 -0.296,0.213 -0.016,0.132 0.113,0.25 0.375,0.432 l 0.1,0.066 z m 13.526,-0.675 v 0.737 l 0.113,-0.002 c 0.262,0 0.356,-0.165 0.356,-0.372 0,-0.204 -0.095,-0.363 -0.356,-0.363 h -0.113 z m 1.129,1.655 -0.322,0.02 c -0.102,0 -0.189,-0.076 -0.365,-0.335 -0.141,-0.206 -0.307,-0.466 -0.313,-0.473 h -0.129 v 0.654 c 0,0.084 0.082,0.136 0.082,0.136 h -0.354 v -1.599 c 0,-0.122 -0.088,-0.194 -0.088,-0.194 h 0.485 c 0.456,0 0.625,0.235 0.625,0.494 0,0.363 -0.337,0.47 -0.337,0.47 0,0 0.208,0.316 0.354,0.516 0.153,0.213 0.292,0.306 0.362,0.311 m -10.161,-1.791 h 0.708 l -0.003,0.276 c 0,0 -0.063,-0.115 -0.147,-0.115 h -0.409 v 1.466 c 0,0.102 0.075,0.167 0.075,0.167 h -0.445 c 0,0 0.074,-0.065 0.074,-0.167 v -1.466 h -0.408 c -0.085,0 -0.149,0.115 -0.149,0.115 v -0.276 h 0.704 z m 2.373,4.559 c -0.123,0.02 -1.621,0.258 -3.332,1.087 l -1.494,-1.089 h 1.846 l 0.57,-1.76 0.569,1.757 1.845,0.003 c -1.491,1.087 -1.49,1.087 -1.49,1.087 l 0.571,1.756 -1.495,-1.087 -1.493,1.087 c 0.072,-0.147 0.64,-0.99 1.708,-1.765 1.08,-0.783 2.129,-1.063 2.195,-1.076 m 4.706,2.834 v -4.441 h 2.695 v 0.898 h -1.684 v 0.816 h 1.441 v 0.895 h -1.441 v 0.916 h 1.705 v 0.916 h -2.716 z m -0.302,-4.442 v 4.441 h -1.045 v -4.128 l -1.907,4.224 h -0.106 l -2.049,-4.537 h 1.1 l 1.004,2.344 1.002,-2.344 h 2.001 z m 3.197,3.174 c 0.266,0.164 0.495,0.278 0.683,0.345 0.188,0.066 0.372,0.099 0.551,0.099 0.181,0 0.323,-0.04 0.435,-0.118 0.109,-0.08 0.164,-0.181 0.164,-0.306 0,-0.179 -0.193,-0.379 -0.579,-0.601 l -0.145,-0.084 -0.296,-0.165 c -0.289,-0.163 -0.502,-0.346 -0.639,-0.551 -0.14,-0.206 -0.208,-0.438 -0.208,-0.697 0,-0.353 0.132,-0.639 0.397,-0.864 0.265,-0.225 0.607,-0.338 1.026,-0.338 0.157,0 0.323,0.019 0.504,0.055 0.182,0.036 0.383,0.093 0.603,0.169 v 1.022 c -0.211,-0.131 -0.409,-0.233 -0.598,-0.305 -0.189,-0.072 -0.35,-0.108 -0.482,-0.108 -0.147,0 -0.262,0.032 -0.346,0.094 -0.085,0.064 -0.127,0.149 -0.127,0.258 0,0.076 0.024,0.147 0.074,0.215 0.051,0.063 0.124,0.125 0.226,0.179 l 0.509,0.284 c 0.428,0.237 0.716,0.456 0.865,0.655 0.147,0.201 0.221,0.439 0.221,0.715 0,0.426 -0.144,0.769 -0.436,1.031 -0.289,0.261 -0.677,0.394 -1.156,0.394 -0.162,0 -0.339,-0.019 -0.528,-0.051 -0.194,-0.035 -0.401,-0.089 -0.631,-0.161 l -0.087,-1.166 z m -13.119,-3.306 0.936,4.573 h -0.991 l -0.395,-1.954 -1.172,2.054 -1.192,-2.054 -0.396,1.954 h -0.99 l 0.936,-4.573 h 0.079 l 1.553,2.843 1.555,-2.843 h 0.077 z"
       clip-path="url(#SVGID_16_)"
       transform="matrix(26.591259,0,0,26.591259,-10713.885,-16844.52)" />
  </g>
</svg>
